# xmcd CD database file
#
# Track frame offsets:
#	150
#	19375
#	41330
#	64052
#	87645
#	110620
#	123202
#	157390
#	176327
#	201587
#
# Disc length: 3223 seconds
#
# Revision: 0
# Processed by: cddbd v1.5.1PL0 Copyright (c) Steve Scherf et al.
# Submitted via: CDex 1.51
#
DISCID=8f0c950a
DTITLE=Ferenczi György - Life
DYEAR=1992
DGENRE=Blues
TTITLE0=Azért édes
TTITLE1=Szükségem van rád
TTITLE2=Hogy érzem magam
TTITLE3=Ugyanaz a blues
TTITLE4=A cég új modellje
TTITLE5=Vártam soká
TTITLE6=Valami baj van
TTITLE7=Soul
TTITLE8=Ferike - Lacika
TTITLE9=Hozd meg a hangulatom
EXTD=YEAR: 1992
EXTT0=
EXTT1=
EXTT2=
EXTT3=
EXTT4=
EXTT5=
EXTT6=
EXTT7=
EXTT8=
EXTT9=
PLAYORDER=
